<svg xmlns="http://www.w3.org/2000/svg" viewBox="0 0 36 36" ><path d="m 29,17 c 0.15,0 0.303,-0.034 0.446,-0.105 0.494,-0.247 0.694,-0.848 0.447,-1.342 C 29.841,15.448 28.575,13 24.999,13 c -3.577,0 -4.842,2.449 -4.894,2.553 -0.247,0.494 -0.046,1.095 0.447,1.342 0.491,0.247 1.085,0.049 1.336,-0.436 C 21.932,16.378 22.719,15 24.999,15 c 2.317,0 3.099,1.433 3.106,1.447 C 28.28,16.798 28.633,17 29,17 Z" style="fill:#664500;fill-opacity:1" /><path d="M 6.999,17 C 6.849,17 6.696,16.966 6.553,16.895 6.059,16.648 5.859,16.047 6.106,15.553 6.158,15.448 7.424,13 11,13 c 3.577,0 4.842,2.449 4.894,2.553 0.247,0.494 0.046,1.095 -0.447,1.342 -0.491,0.247 -1.085,0.049 -1.336,-0.436 C 14.067,16.378 13.28,15 11,15 8.683,15 7.901,16.433 7.894,16.447 7.719,16.798 7.366,17 6.999,17 Z" style="fill:#664500;fill-opacity:1" /></svg>