<svg xmlns="http://www.w3.org/2000/svg" viewBox="0 0 36 36" ><path fill="#E1E8ED" d="M20.143 32.215c0 1.183-.959 2.143-2.143 2.143s-2.143-.96-2.143-2.143c0-1.184.96-2.144 2.143-2.144s2.143.96 2.143 2.144z" /><path d="m 15.635,33 c 0,-2.612 1.711,-8 2.365,-8 0.653,0 2.365,5.388 2.365,8 0,2.612 -1.713,3 -2.365,3 -0.654,0 -2.365,-0.388 -2.365,-3 z" style="fill:#dd2e44;fill-opacity:1" /><ellipse fill="#F4900C" cx="18" cy="22.5" rx="7" ry="4.5" /><path fill="#FFAC33" d="M25 22.5c0 1.5-14 1.5-14 0s4.791-4.5 7-4.5 7 3 7 4.5z" /></svg>