<svg xmlns="http://www.w3.org/2000/svg" viewBox="0 0 36 36" ><path d="m 21.871,27 c 1.335,-0.412 2.629,-1.156 2.629,-2.5 0,-2.619 -4.912,-2.968 -5.473,-2.999 -0.277,-0.036 -0.51,0.194 -0.526,0.468 -0.017,0.274 0.19,0.511 0.464,0.53 0.035,0.002 3.535,0.299 3.535,2.001 0,1.702 -3.5,1.999 -3.535,2.001 -0.01,10e-4 -0.017,0.006 -0.026,0.007 -0.124,0.008 -0.23,0.065 -0.31,0.159 l -0.015,0.021 c -0.029,0.039 -0.055,0.078 -0.073,0.125 -0.011,0.027 -0.016,0.057 -0.021,0.086 -0.005,0.024 -0.017,0.046 -0.019,0.07 -0.001,0.01 0.004,0.02 0.004,0.031 0,0.011 -0.005,0.021 -0.004,0.031 0.002,0.025 0.013,0.046 0.019,0.07 0.006,0.029 0.011,0.059 0.022,0.087 0.013,0.032 0.032,0.06 0.051,0.088 0.017,0.023 0.03,0.047 0.05,0.067 0.023,0.024 0.052,0.043 0.081,0.062 0.024,0.017 0.045,0.033 0.071,0.046 0.031,0.015 0.065,0.021 0.101,0.027 0.023,0.006 0.044,0.018 0.069,0.02 0.035,0.003 3.535,0.3 3.535,2.002 0,1.702 -3.5,1.999 -3.535,2.001 -0.273,0.02 -0.481,0.257 -0.464,0.53 0.017,0.265 0.236,0.469 0.499,0.469 l 0.027,-10e-4 C 19.588,32.468 24.5,32.119 24.5,29.5 24.5,28.156 23.206,27.412 21.871,27 Z" style="fill:#664500;fill-opacity:1" /></svg>